<svg xmlns="http://www.w3.org/2000/svg" viewBox="0 0 600 37390">
  <defs>
    <style type="text/css">
      @import url('https://rsms.me/inter/inter.css');
      text {
        font-family: Inter, -apple-system, BlinkMacSystemFont, "Segoe UI", Roboto, Helvetica, Arial, sans-serif, "Apple Color Emoji", "Segoe UI Emoji", "Segoe UI Symbol";
        font-size: 40px;
        font-weight: 900;
      }
    </style>
  </defs>
  <rect fill="#202124" x="0" y="0" width="600" height="37390"/>
  <text x="40" y="90" fill="#8b8589">Acero</text><text x="40" y="160" fill="#66ada4">Agua</text><text x="40" y="230" fill="#568203">Aguacate o Palta</text><text x="40" y="300" fill="#9fd5d1">Aguamarina</text><text x="40" y="370" fill="#fab57f">Albaricoque</text><text x="40" y="440" fill="#d4442f">Almagre</text><text x="40" y="510" fill="#c19a6b">Almendra</text><text x="40" y="580" fill="#b9b8b5">Aluminio</text><text x="40" y="650" fill="#a5a5a5">Aluminio Blanco</text><text x="40" y="720" fill="#8f8f8f">Aluminio Gris</text><text x="40" y="790" fill="#e52b50">Amaranto</text><text x="40" y="860" fill="#ffe900">Amarillo</text><text x="40" y="930" fill="#c6a664">Amarillo Arena</text><text x="40" y="1000" fill="#f5d033">Amarillo Azafrán</text><text x="40" y="1070" fill="#edff21">Amarillo Azufre</text><text x="40" y="1140" fill="#ffff00">Amarillo Brillante</text><text x="40" y="1210" fill="#fff600">Amarillo Cadmio</text><text x="40" y="1280" fill="#fada5e">Amarillo Chino</text><text x="40" y="1350" fill="#f3da0b">Amarillo Colza</text><text x="40" y="1420" fill="#9d9101">Amarillo Curry</text><text x="40" y="1490" fill="#f3a505">Amarillo Dalia</text><text x="40" y="1560" fill="#ccff00">Amarillo Fluorescente</text><text x="40" y="1630" fill="#ffcd00">Amarillo Hansa</text><text x="40" y="1700" fill="#f39430">Amarillo Indio</text><text x="40" y="1770" fill="#c7b446">Amarillo Limón</text><text x="40" y="1840" fill="#e4a010">Amarillo Maiz</text><text x="40" y="1910" fill="#f4a900">Amarillo Melón</text><text x="40" y="1980" fill="#a98307">Amarillo Miel</text><text x="40" y="2050" fill="#ffeb00">Amarillo Monoazo</text><text x="40" y="2120" fill="#ed760e">Amarillo Naranja</text><text x="40" y="2190" fill="#dc9d00">Amarillo Narciso</text><text x="40" y="2260" fill="#eccd6a">Amarillo Nápoles</text><text x="40" y="2330" fill="#aea04b">Amarillo Ocre</text><text x="40" y="2400" fill="#999950">Amarillo Oliva</text><text x="40" y="2470" fill="#cda434">Amarillo Oro</text><text x="40" y="2540" fill="#efa94a">Amarillo Pastel</text><text x="40" y="2610" fill="#fad201">Amarillo Patito</text><text x="40" y="2680" fill="#d6ae01">Amarillo Retama</text><text x="40" y="2750" fill="#ffba00">Amarillo Selectivo</text><text x="40" y="2820" fill="#e5be01">Amarillo Señales</text><text x="40" y="2890" fill="#f39f18">Amarillo Sol</text><text x="40" y="2960" fill="#fbd302">Amarillo Tráfico</text><text x="40" y="3030" fill="#ded700">Amarillo Verdoso</text><text x="40" y="3100" fill="#ffbf08">Amarillo de Cobalto</text><text x="40" y="3170" fill="#ffcc0f">Amarillo de Cromo</text><text x="40" y="3240" fill="#f8f32b">Amarillo de Zinc</text><text x="40" y="3310" fill="#9966cc">Amatista</text><text x="40" y="3380" fill="#ef7f1a">Anaranjado</text><text x="40" y="3450" fill="#bf8f4e">Ante</text><text x="40" y="3520" fill="#383e42">Antracita</text><text x="40" y="3590" fill="#ece2c6">Arena</text><text x="40" y="3660" fill="#555555">Asfalto</text><text x="40" y="3730" fill="#d7b615">Aureolina</text><text x="40" y="3800" fill="#b48969">Avellana</text><text x="40" y="3870" fill="#343434">Azabache</text><text x="40" y="3940" fill="#f4c430">Azafrán</text><text x="40" y="4010" fill="#ff4000">Azarcón</text><text x="40" y="4080" fill="#0070b8">Azul</text><text x="40" y="4150" fill="#231a24">Azul Acero</text><text x="40" y="4220" fill="#8f97cb">Azul Aciano</text><text x="40" y="4290" fill="#256d7b">Azul Agua</text><text x="40" y="4360" fill="#91a3b0">Azul Alicia</text><text x="40" y="4430" fill="#025669">Azul Azur</text><text x="40" y="4500" fill="#89cff0">Azul Bebé o Azul Celeste</text><text x="40" y="4570" fill="#3e5f8a">Azul Brillante</text><text x="40" y="4640" fill="#1b5583">Azul Capri</text><text x="40" y="4710" fill="#2271b3">Azul Celeste</text><text x="40" y="4780" fill="#0067a5">Azul Cerúleo</text><text x="40" y="4850" fill="#00a0e3">Azul Cian</text><text x="40" y="4920" fill="#1e213d">Azul Cobalto</text><text x="40" y="4990" fill="#78bbe4">Azul Columbia</text><text x="40" y="5060" fill="#1034a6">Azul Egipcio</text><text x="40" y="5130" fill="#1630be">Azul Eléctrico</text><text x="40" y="5200" fill="#96c8a2">Azul Eton</text><text x="40" y="5270" fill="#000f89">Azul Ftalo</text><text x="40" y="5340" fill="#0e294b">Azul Genciana</text><text x="40" y="5410" fill="#007e8b">Azul Glauco</text><text x="40" y="5480" fill="#26252d">Azul Grisáceo</text><text x="40" y="5550" fill="#7ca2b8">Azul Horizonte</text><text x="40" y="5620" fill="#002fa7">Azul Klein</text><text x="40" y="5690" fill="#8c92ac">Azul Lavanda</text><text x="40" y="5760" fill="#49678d">Azul Lejanía</text><text x="40" y="5830" fill="#6c79b8">Azul Lino o Azulino</text><text x="40" y="5900" fill="#3b83bd">Azul Luminoso</text><text x="40" y="5970" fill="#5564eb">Azul Majorelle</text><text x="40" y="6040" fill="#00304e">Azul Marino</text><text x="40" y="6110" fill="#73c2fb">Azul Maya</text><text x="40" y="6180" fill="#2a2a46">Azul Medianoche</text><text x="40" y="6250" fill="#01108a">Azul Monastral</text><text x="40" y="6320" fill="#18171c">Azul Negruzco</text><text x="40" y="6390" fill="#252850">Azul Noche</text><text x="40" y="6460" fill="#102c54">Azul Noche Perlado</text><text x="40" y="6530" fill="#1d334a">Azul Oceano</text><text x="40" y="6600" fill="#606e8c">Azul Olombino</text><text x="40" y="6670" fill="#5d9b9b">Azul Pastel</text><text x="40" y="6740" fill="#1c39bb">Azul Persa</text><text x="40" y="6810" fill="#436b95">Azul Porcelana</text><text x="40" y="6880" fill="#4c2882">Azul Púrpura</text><text x="40" y="6950" fill="#00416a">Azul Real</text><text x="40" y="7020" fill="#1e2460">Azul Señales</text><text x="40" y="7090" fill="#81d8d0">Azul Tiffany</text><text x="40" y="7160" fill="#063971">Azul Tráfico</text><text x="40" y="7230" fill="#3f888f">Azul Turquesa</text><text x="40" y="7300" fill="#20214f">Azul Ultramar</text><text x="40" y="7370" fill="#009b94">Azul Verde</text><text x="40" y="7440" fill="#1f3438">Azul Verdoso</text><text x="40" y="7510" fill="#354d73">Azul Violeta</text><text x="40" y="7580" fill="#1d1e33">Azul Zafiro</text><text x="40" y="7650" fill="#033e72">Azul de Prusia</text><text x="40" y="7720" fill="#0080ff">Azur</text><text x="40" y="7790" fill="#1c4c96">Añil</text><text x="40" y="7860" fill="#fbec5d">Banana</text><text x="40" y="7930" fill="#c29b6c">Barbecho</text><text x="40" y="8000" fill="#e66761">Begonia</text><text x="40" y="8070" fill="#c2b078">Beige</text><text x="40" y="8140" fill="#9e9764">Beige Agrisado</text><text x="40" y="8210" fill="#8a6642">Beige Pardo</text><text x="40" y="8280" fill="#6a5d4d">Beige Perlado</text><text x="40" y="8350" fill="#bebd7f">Beige Verdoso</text><text x="40" y="8420" fill="#e8c39e">Beige o Beis</text><text x="40" y="8490" fill="#291e29">Berenjena</text><text x="40" y="8560" fill="#b3342c">Bermejo</text><text x="40" y="8630" fill="#e62e00">Bermellón</text><text x="40" y="8700" fill="#877d60">Bistre</text><text x="40" y="8770" fill="#967117">Bistre Marrón</text><text x="40" y="8840" fill="#ffffff">Blanco</text><text x="40" y="8910" fill="#fdf4e3">Blanco Crema</text><text x="40" y="8980" fill="#e7ebda">Blanco Grisáceo</text><text x="40" y="9050" fill="#b4bcc0">Blanco Humo</text><text x="40" y="9120" fill="#ebe1c9">Blanco Navajo</text><text x="40" y="9190" fill="#d7d7d7">Blanco Papiro</text><text x="40" y="9260" fill="#eae6ca">Blanco Perla</text><text x="40" y="9330" fill="#fefefe">Blanco Puro</text><text x="40" y="9400" fill="#f4f4f4">Blanco Señales</text><text x="40" y="9470" fill="#f6f6f6">Blanco Tráfico</text><text x="40" y="9540" fill="#fafbfd">Blanco de Zinc/cinc</text><text x="40" y="9610" fill="#900020">Borgoña</text><text x="40" y="9680" fill="#56070c">Borravino</text><text x="40" y="9750" fill="#cd7f32">Bronce</text><text x="40" y="9820" fill="#d2b48c">Bronceado</text><text x="40" y="9890" fill="#641c34">Burdeos</text><text x="40" y="9960" fill="#651d35">Burdeos Oscuro</text><text x="40" y="10030" fill="#96305a">Burdeos o Bordó</text><text x="40" y="10100" fill="#ccccff">Bígaro</text><text x="40" y="10170" fill="#591f0b">Café</text><text x="40" y="10240" fill="#fff8e7">Café con Leche Cósmico</text><text x="40" y="10310" fill="#eeb283">Calabaza</text><text x="40" y="10380" fill="#31aac1">Calipso</text><text x="40" y="10450" fill="#c39c6d">Camello</text><text x="40" y="10520" fill="#bd8a3e">Canela</text><text x="40" y="10590" fill="#4c2f27">Caoba</text><text x="40" y="10660" fill="#dfc38a">Caqui</text><text x="40" y="10730" fill="#ae6938">Caramelo</text><text x="40" y="10800" fill="#2b2a29">Carbón</text><text x="40" y="10870" fill="#c41e3a">Cardenal</text><text x="40" y="10940" fill="#6dc1ae">Cardenillo</text><text x="40" y="11010" fill="#d8bfd8">Cardo</text><text x="40" y="11080" fill="#ae0e36">Carmesí</text><text x="40" y="11150" fill="#d31c4f">Carmín</text><text x="40" y="11220" fill="#860919">Carmín Alizarina</text><text x="40" y="11290" fill="#fcd0b4">Carne o Carnación</text><text x="40" y="11360" fill="#c4c574">Cartujo</text><text x="40" y="11430" fill="#773525">Castaña o Castaño</text><text x="40" y="11500" fill="#633a34">Castaño</text><text x="40" y="11570" fill="#0cb7f2">Celeste</text><text x="40" y="11640" fill="#cdcdcd">Ceniza</text><text x="40" y="11710" fill="#008080">Cerceta</text><text x="40" y="11780" fill="#de3163">Cereza</text><text x="40" y="11850" fill="#0098d5">Cerúleo</text><text x="40" y="11920" fill="#e4d00a">Cetrino</text><text x="40" y="11990" fill="#f3e5ab">Champán</text><text x="40" y="12060" fill="#beb72d">Chartreuse</text><text x="40" y="12130" fill="#45322e">Chocolate</text><text x="40" y="12200" fill="#4a2c2a">Chocolate Magico</text><text x="40" y="12270" fill="#00ffff">Cian</text><text x="40" y="12340" fill="#00ccff">Cielo</text><text x="40" y="12410" fill="#78184a">Ciruela</text><text x="40" y="12480" fill="#763c28">Cobre Perlado</text><text x="40" y="12550" fill="#cb6d51">Cobre o Cobrizo</text><text x="40" y="12620" fill="#f4c2c2">Concha</text><text x="40" y="12690" fill="#673147">Conchevino</text><text x="40" y="12760" fill="#e4717a">Coral</text><text x="40" y="12830" fill="#924549">Cordobán</text><text x="40" y="12900" fill="#bb5d5e">Corinto</text><text x="40" y="12970" fill="#fff0c9">Crema</text><text x="40" y="13040" fill="#d9d9f3">Cuarzo</text><text x="40" y="13110" fill="#fbb680">Damasco</text><text x="40" y="13180" fill="#ffe5b4">Dark</text><text x="40" y="13250" fill="#d4af37">Dorado</text><text x="40" y="13320" fill="#fee6b5">Durazno</text><text x="40" y="13390" fill="#9b8f79">Elefante</text><text x="40" y="13460" fill="#fdf5e6">Encaje Antiguo</text><text x="40" y="13530" fill="#fd2d1c">Escarlata</text><text x="40" y="13600" fill="#009975">Esmeralda</text><text x="40" y="13670" fill="#4a5d23">Espinaca</text><text x="40" y="13740" fill="#b53389">Fandango</text><text x="40" y="13810" fill="#59646a">Feldgrau</text><text x="40" y="13880" fill="#e62c58">Frambuesa</text><text x="40" y="13950" fill="#ff0080">Fucsia</text><text x="40" y="14020" fill="#e8bd85">Gamuza</text><text x="40" y="14090" fill="#2a6478">Gencian Perlado</text><text x="40" y="14160" fill="#e52d33">Geranio</text><text x="40" y="14230" fill="#008094">Glauco</text><text x="40" y="14300" fill="#1c1c1c">Grafito</text><text x="40" y="14370" fill="#c72744">Grana</text><text x="40" y="14440" fill="#800000">Granate</text><text x="40" y="14510" fill="#808080">Gris</text><text x="40" y="14580" fill="#848482">Gris Acorazado</text><text x="40" y="14650" fill="#8f8b66">Gris Amarillento</text><text x="40" y="14720" fill="#293133">Gris Antracita</text><text x="40" y="14790" fill="#78858b">Gris Ardilla</text><text x="40" y="14860" fill="#474b4e">Gris Azulado</text><text x="40" y="14930" fill="#4e5754">Gris Basalto</text><text x="40" y="15000" fill="#6d6552">Gris Beige</text><text x="40" y="15070" fill="#81878b">Gris Cadete</text><text x="40" y="15140" fill="#6a5f31">Gris Caqui</text><text x="40" y="15210" fill="#7d8471">Gris Cemento</text><text x="40" y="15280" fill="#cecece">Gris Ceniza</text><text x="40" y="15350" fill="#9c9c9c">Gris Claro Perlado</text><text x="40" y="15420" fill="#6c6960">Gris Cuarzo</text><text x="40" y="15490" fill="#496063">Gris Frío</text><text x="40" y="15560" fill="#474a51">Gris Grafita</text><text x="40" y="15630" fill="#2f353b">Gris Granito</text><text x="40" y="15700" fill="#b8b799">Gris Guijarro</text><text x="40" y="15770" fill="#434b4d">Gris Hierro</text><text x="40" y="15840" fill="#686c5e">Gris Hormigón</text><text x="40" y="15910" fill="#4c514a">Gris Lona</text><text x="40" y="15980" fill="#d8d8d8">Gris Luminoso</text><text x="40" y="16050" fill="#6c7059">Gris Musgo</text><text x="40" y="16120" fill="#898176">Gris Musgo Perlado</text><text x="40" y="16190" fill="#23282b">Gris Negruzco</text><text x="40" y="16260" fill="#7e7b52">Gris Oliva</text><text x="40" y="16330" fill="#828282">Gris Oscuro Perlado</text><text x="40" y="16400" fill="#464531">Gris Parduzco</text><text x="40" y="16470" fill="#8b8c7a">Gris Piedra</text><text x="40" y="16540" fill="#434750">Gris Pizarra</text><text x="40" y="16610" fill="#8a9597">Gris Plata</text><text x="40" y="16680" fill="#7f7679">Gris Platino</text><text x="40" y="16750" fill="#7d7f7d">Gris Polvo</text><text x="40" y="16820" fill="#646b63">Gris Ratón</text><text x="40" y="16890" fill="#cac4b0">Gris Seda</text><text x="40" y="16960" fill="#969992">Gris Señales</text><text x="40" y="17030" fill="#332f2c">Gris Sombra</text><text x="40" y="17100" fill="#909090">Gris Tele 1</text><text x="40" y="17170" fill="#82898f">Gris Tele 2</text><text x="40" y="17240" fill="#d0d0d0">Gris Tele 4</text><text x="40" y="17310" fill="#4e5452">Gris Tráfico B</text><text x="40" y="17380" fill="#8d948d">Gris Tráfico a</text><text x="40" y="17450" fill="#9da1aa">Gris Ventana</text><text x="40" y="17520" fill="#4d5645">Gris Verdoso</text><text x="40" y="17590" fill="#5a656b">Gris de Campaña</text><text x="40" y="17660" fill="#565656">Gris de Davy</text><text x="40" y="17730" fill="#536878">Gris de Payne</text><text x="40" y="17800" fill="#b5b8b1">Gris Ágata</text><text x="40" y="17870" fill="#fabd00">Gualda o Gualdo</text><text x="40" y="17940" fill="#952f57">Guinda</text><text x="40" y="18010" fill="#f00909">Gules</text><text x="40" y="18080" fill="#e49b0f">Guta o Gutagamba</text><text x="40" y="18150" fill="#844e34">Habano</text><text x="40" y="18220" fill="#a2522b">Herrumbre</text><text x="40" y="18290" fill="#a2c8d4">Hielo</text><text x="40" y="18360" fill="#fde7b6">Hojaldre</text><text x="40" y="18430" fill="#e3dac9">Hueso</text><text x="40" y="18500" fill="#92a4b1">Humo</text><text x="40" y="18570" fill="#891e35">Hígado</text><text x="40" y="18640" fill="#00a86b">Jade</text><text x="40" y="18710" fill="#b78e5b">Kalua</text><text x="40" y="18780" fill="#a73330">Lacre</text><text x="40" y="18850" fill="#b22222">Ladrillo</text><text x="40" y="18920" fill="#443229">Ladrillo Oscuro</text><text x="40" y="18990" fill="#4273b8">Lapislázuli</text><text x="40" y="19060" fill="#ab9144">Latón</text><text x="40" y="19130" fill="#483c32">Lava</text><text x="40" y="19200" fill="#b82928">Lava Fundida</text><text x="40" y="19270" fill="#b57edc">Lavanda</text><text x="40" y="19340" fill="#c49d6e">León o Leonado</text><text x="40" y="19410" fill="#c8a2c8">Lila</text><text x="40" y="19480" fill="#6c4675">Lila Azulado</text><text x="40" y="19550" fill="#bfff00">Lima</text><text x="40" y="19620" fill="#e3ff00">Lima-limón</text><text x="40" y="19690" fill="#d9e542">Limón</text><text x="40" y="19760" fill="#d7d0b7">Lino</text><text x="40" y="19830" fill="#7f69a5">Lirio</text><text x="40" y="19900" fill="#f98f1d">Llama</text><text x="40" y="19970" fill="#852c84">Lombarda</text><text x="40" y="20040" fill="#ffba14">Lúcuma</text><text x="40" y="20110" fill="#ff00ff">Magenta</text><text x="40" y="20180" fill="#cf3476">Magenta Tele</text><text x="40" y="20250" fill="#0bda51">Malaquita</text><text x="40" y="20320" fill="#e0b0ff">Malva</text><text x="40" y="20390" fill="#f06030">Mamey</text><text x="40" y="20460" fill="#ed872d">Mandarina</text><text x="40" y="20530" fill="#e1cc4f">Marfil</text><text x="40" y="20600" fill="#e6d690">Marfil Claro</text><text x="40" y="20670" fill="#993300">Marmol</text><text x="40" y="20740" fill="#643b35">Marron Castaño</text><text x="40" y="20810" fill="#97572b">Marrón Cuero</text><text x="40" y="20880" fill="#996515">Marrón Dorado</text><text x="40" y="20950" fill="#6c3b2a">Marrón Señales</text><text x="40" y="21020" fill="#4e3b31">Marrón Tierra</text><text x="40" y="21090" fill="#fced5e">Maíz</text><text x="40" y="21160" fill="#fce8b7">Melocotón</text><text x="40" y="21230" fill="#fbca7f">Melón</text><text x="40" y="21300" fill="#bff7dc">Menta</text><text x="40" y="21370" fill="#d29340">Miel</text><text x="40" y="21440" fill="#e2afed">Molvada</text><text x="40" y="21510" fill="#a349a4">Morado</text><text x="40" y="21580" fill="#6c6874">Morado Perlado</text><text x="40" y="21650" fill="#ffdb58">Mostaza</text><text x="40" y="21720" fill="#51794b">Musgo</text><text x="40" y="21790" fill="#f0801b">Naranja</text><text x="40" y="21860" fill="#ff2301">Naranja Brillante</text><text x="40" y="21930" fill="#ee882e">Naranja Cadmio</text><text x="40" y="22000" fill="#f38d3c">Naranja Caqui</text><text x="40" y="22070" fill="#ffa420">Naranja Claro Brillante</text><text x="40" y="22140" fill="#ec7c26">Naranja Intenso</text><text x="40" y="22210" fill="#c35831">Naranja Perlado</text><text x="40" y="22280" fill="#d99058">Naranja Persa</text><text x="40" y="22350" fill="#f44611">Naranja Puro</text><text x="40" y="22420" fill="#ff7514">Naranja Pálido</text><text x="40" y="22490" fill="#fe6448">Naranja Rojizo</text><text x="40" y="22560" fill="#e55137">Naranja Salmón</text><text x="40" y="22630" fill="#cb2821">Naranja Sanguineo</text><text x="40" y="22700" fill="#d84b20">Naranja Señales</text><text x="40" y="22770" fill="#f54021">Naranja Tráfico</text><text x="40" y="22840" fill="#ff5a36">Naranja de Portland</text><text x="40" y="22910" fill="#000000">Negro</text><text x="40" y="22980" fill="#2a3223">Negro Bujía</text><text x="40" y="23050" fill="#1d1d1d">Negro Grafito</text><text x="40" y="23120" fill="#0a0a0a">Negro Intenso</text><text x="40" y="23190" fill="#282828">Negro Señales</text><text x="40" y="23260" fill="#1e1e1e">Negro Tráfico</text><text x="40" y="23330" fill="#382212">Negro de Humo</text><text x="40" y="23400" fill="#5d432c">Nogal</text><text x="40" y="23470" fill="#8f817f">Níquel</text><text x="40" y="23540" fill="#fad6a5">Ocaso</text><text x="40" y="23610" fill="#b9935a">Ocre</text><text x="40" y="23680" fill="#d9ad2a">Ocre Amarillo</text><text x="40" y="23750" fill="#c97e28">Ocre Dorado</text><text x="40" y="23820" fill="#5f3f3e">Ocre Pardo</text><text x="40" y="23890" fill="#823a3f">Ocre Rojo</text><text x="40" y="23960" fill="#808000">Oliva</text><text x="40" y="24030" fill="#3e3b32">Oliva Grisáceo</text><text x="40" y="24100" fill="#3b3c36">Oliva Negruzco</text><text x="40" y="24170" fill="#25221b">Oliva Parduzco</text><text x="40" y="24240" fill="#ffd700">Oro</text><text x="40" y="24310" fill="#705335">Oro Perlado</text><text x="40" y="24380" fill="#cfb53b">Oro Viejo</text><text x="40" y="24450" fill="#da70d6">Orquídea</text><text x="40" y="24520" fill="#dd969c">Palo Rosa</text><text x="40" y="24590" fill="#578304">Palta o Aguacate</text><text x="40" y="24660" fill="#ac8147">Pardo</text><text x="40" y="24730" fill="#a65e2e">Pardo Anaranjado</text><text x="40" y="24800" fill="#734222">Pardo Arcilla</text><text x="40" y="24870" fill="#79553d">Pardo Beige</text><text x="40" y="24940" fill="#8e402a">Pardo Cobre</text><text x="40" y="25010" fill="#59351f">Pardo Corzo</text><text x="40" y="25080" fill="#403a3a">Pardo Grisáceo</text><text x="40" y="25150" fill="#212121">Pardo Negruzco</text><text x="40" y="25220" fill="#5b3a29">Pardo Nuez</text><text x="40" y="25290" fill="#955f20">Pardo Ocre</text><text x="40" y="25360" fill="#6f4f28">Pardo Oliva</text><text x="40" y="25430" fill="#755c48">Pardo Pálido</text><text x="40" y="25500" fill="#592321">Pardo Rojo</text><text x="40" y="25570" fill="#826c34">Pardo Verdoso</text><text x="40" y="25640" fill="#f0ead6">Perla</text><text x="40" y="25710" fill="#cd853f">Perú</text><text x="40" y="25780" fill="#ffd4b2">Piel</text><text x="40" y="25850" fill="#93c572">Pistacho</text><text x="40" y="25920" fill="#5d6770">Pizarra</text><text x="40" y="25990" fill="#c0c0c0">Plata o Plateado</text><text x="40" y="26060" fill="#e5e4e2">Platino</text><text x="40" y="26130" fill="#575757">Plomo</text><text x="40" y="26200" fill="#446c96">Porcelana</text><text x="40" y="26270" fill="#245338">Porráceo</text><text x="40" y="26340" fill="#cbc65d">Puerro</text><text x="40" y="26410" fill="#e62e11">Punzó</text><text x="40" y="26480" fill="#9a4eae">Purpúreo</text><text x="40" y="26550" fill="#6a0dad">Púrpura</text><text x="40" y="26620" fill="#cc00ff">Púrpura Eléctrico</text><text x="40" y="26690" fill="#9e0e40">Púrpura Francés</text><text x="40" y="26760" fill="#7b236d">Púrpura de Tiro</text><text x="40" y="26830" fill="#a03472">Púrpurá Tráfico</text><text x="40" y="26900" fill="#e5b03d">Quercitrón</text><text x="40" y="26970" fill="#c42d45">Quermes</text><text x="40" y="27040" fill="#e60026">Rojo</text><text x="40" y="27110" fill="#c93c20">Rojo Anaranjado</text><text x="40" y="27180" fill="#c1876b">Rojo Beige</text><text x="40" y="27250" fill="#f80000">Rojo Brillante</text><text x="40" y="27320" fill="#a2231d">Rojo Carmin</text><text x="40" y="27390" fill="#f75e25">Rojo Claro Anaranjado</text><text x="40" y="27460" fill="#fe0000">Rojo Claro Brillante</text><text x="40" y="27530" fill="#b32821">Rojo Coral</text><text x="40" y="27600" fill="#a54332">Rojo Falun</text><text x="40" y="27670" fill="#cc0000">Rojo Ferrari</text><text x="40" y="27740" fill="#c51d34">Rojo Frambuesa</text><text x="40" y="27810" fill="#d53032">Rojo Fresa</text><text x="40" y="27880" fill="#ff005a">Rojo Fucsia</text><text x="40" y="27950" fill="#882d17">Rojo Indio</text><text x="40" y="28020" fill="#6d3f5b">Rojo Lila</text><text x="40" y="28090" fill="#e5097f">Rojo Magenta</text><text x="40" y="28160" fill="#412227">Rojo Negruzco</text><text x="40" y="28230" fill="#fe575f">Rojo Neón</text><text x="40" y="28300" fill="#b32428">Rojo Oriente</text><text x="40" y="28370" fill="#781f19">Rojo Pardo</text><text x="40" y="28440" fill="#9c0002">Rojo Periodo</text><text x="40" y="28510" fill="#cb1d11">Rojo Persa</text><text x="40" y="28580" fill="#cb3234">Rojo Puro</text><text x="40" y="28650" fill="#75151e">Rojo Purpura</text><text x="40" y="28720" fill="#b21154">Rojo Púrpura</text><text x="40" y="28790" fill="#9b111e">Rojo Rubí</text><text x="40" y="28860" fill="#721422">Rojo Rubí Perlado</text><text x="40" y="28930" fill="#d95030">Rojo Salmón</text><text x="40" y="29000" fill="#9c0001">Rojo Sangre</text><text x="40" y="29070" fill="#a52019">Rojo Señales</text><text x="40" y="29140" fill="#a12312">Rojo Tomate</text><text x="40" y="29210" fill="#79443b">Rojo Toscano</text><text x="40" y="29280" fill="#cc0605">Rojo Tráfico</text><text x="40" y="29350" fill="#ae2029">Rojo Upsdell</text><text x="40" y="29420" fill="#6e433c">Rojo Veneciano</text><text x="40" y="29490" fill="#d36e70">Rojo Viejo</text><text x="40" y="29560" fill="#5e2129">Rojo Vino</text><text x="40" y="29630" fill="#922b3e">Rojo Violeta</text><text x="40" y="29700" fill="#af2b1e">Rojo Vivo</text><text x="40" y="29770" fill="#642424">Rojo Óxido</text><text x="40" y="29840" fill="#e63244">Rosa</text><text x="40" y="29910" fill="#ea899a">Rosa Claro</text><text x="40" y="29980" fill="#f88379">Rosa Coral</text><text x="40" y="30050" fill="#e8ccd7">Rosa Lavanda</text><text x="40" y="30120" fill="#d597ae">Rosa Malva</text><text x="40" y="30190" fill="#f50087">Rosa Mexicano</text><text x="40" y="30260" fill="#997a8d">Rosa Mountbatten</text><text x="40" y="30330" fill="#ff9966">Rosa Naranja</text><text x="40" y="30400" fill="#b44c43">Rosa Perlado</text><text x="40" y="30470" fill="#fc0fc0">Rosa Shocking</text><text x="40" y="30540" fill="#ffc0cb">Rosa o Rosado</text><text x="40" y="30610" fill="#fec1cc">Rosado Claro</text><text x="40" y="30680" fill="#e0115f">Rubí</text><text x="40" y="30750" fill="#cc6e52">Rufo</text><text x="40" y="30820" fill="#f28773">Salmón</text><text x="40" y="30890" fill="#93a996">Salvia</text><text x="40" y="30960" fill="#245b60">Salvia Azulado</text><text x="40" y="31030" fill="#92000a">Sangría</text><text x="40" y="31100" fill="#8a5754">Secuoya</text><text x="40" y="31170" fill="#382c1e">Sepia</text><text x="40" y="31240" fill="#c58a3e">Siena</text><text x="40" y="31310" fill="#892e18">Siena Tostada</text><text x="40" y="31380" fill="#008c00">Sinople</text><text x="40" y="31450" fill="#b94841">Teja</text><text x="40" y="31520" fill="#ff6347">Tomate</text><text x="40" y="31590" fill="#87794e">Torcaza o Topo</text><text x="40" y="31660" fill="#f5deb3">Trigo</text><text x="40" y="31730" fill="#40e0d0">Turquesa</text><text x="40" y="31800" fill="#497e76">Turquesa Menta</text><text x="40" y="31870" fill="#7fb5b5">Turquesa Pastel</text><text x="40" y="31940" fill="#122562">Turquí</text><text x="40" y="32010" fill="#cffdaf">Té Verde</text><text x="40" y="32080" fill="#4374b9">Ultramar</text><text x="40" y="32150" fill="#2f2140">Uva</text><text x="40" y="32220" fill="#f4e6ac">Vainilla</text><text x="40" y="32290" fill="#008000">Verde</text><text x="40" y="32360" fill="#31372b">Verde Abeto</text><text x="40" y="32430" fill="#87e79e">Verde Agua</text><text x="40" y="32500" fill="#57a639">Verde Amarillento</text><text x="40" y="32570" fill="#c6ce00">Verde Amarillo</text><text x="40" y="32640" fill="#1f3a3d">Verde Azulado</text><text x="40" y="32710" fill="#228b22">Verde Bosque</text><text x="40" y="32780" fill="#343b29">Verde Botella</text><text x="40" y="32850" fill="#00bb2d">Verde Brillante</text><text x="40" y="32920" fill="#004225">Verde Británico de Carreras</text><text x="40" y="32990" fill="#6c7156">Verde Caña</text><text x="40" y="33060" fill="#5f7f7a">Verde Ceniza</text><text x="40" y="33130" fill="#00ff99">Verde Cian</text><text x="40" y="33200" fill="#98ff98">Verde Claro</text><text x="40" y="33270" fill="#2e3a23">Verde Cromo</text><text x="40" y="33340" fill="#287233">Verde Esmeralda</text><text x="40" y="33410" fill="#0f4f41">Verde Ftalo</text><text x="40" y="33480" fill="#3d642d">Verde Helecho</text><text x="40" y="33550" fill="#35682d">Verde Hierba</text><text x="40" y="33620" fill="#2d572c">Verde Hoja</text><text x="40" y="33690" fill="#44944a">Verde Hooker</text><text x="40" y="33760" fill="#bdecb6">Verde Lanquecino</text><text x="40" y="33830" fill="#c0fe01">Verde Limón</text><text x="40" y="33900" fill="#52b830">Verde Loro</text><text x="40" y="33970" fill="#84c3be">Verde Luminoso</text><text x="40" y="34040" fill="#8db600">Verde Manzana</text><text x="40" y="34110" fill="#2e8b57">Verde Mar</text><text x="40" y="34180" fill="#4c9141">Verde Mayo</text><text x="40" y="34250" fill="#20603d">Verde Menta</text><text x="40" y="34320" fill="#86895d">Verde Militar</text><text x="40" y="34390" fill="#2f4538">Verde Musgo</text><text x="40" y="34460" fill="#343e40">Verde Negruzco</text><text x="40" y="34530" fill="#424632">Verde Oliva</text><text x="40" y="34600" fill="#015d52">Verde Opalo</text><text x="40" y="34670" fill="#006400">Verde Oscuro</text><text x="40" y="34740" fill="#39352a">Verde Parduzco</text><text x="40" y="34810" fill="#316650">Verde Patina</text><text x="40" y="34880" fill="#1c542d">Verde Perlado</text><text x="40" y="34950" fill="#173f35">Verde Petróleo</text><text x="40" y="35020" fill="#2c5545">Verde Pino</text><text x="40" y="35090" fill="#00ff7f">Verde Primavera</text><text x="40" y="35160" fill="#008f39">Verde Puro</text><text x="40" y="35230" fill="#89ac76">Verde Pálido</text><text x="40" y="35300" fill="#587246">Verde Reseda</text><text x="40" y="35370" fill="#317f43">Verde Señales</text><text x="40" y="35440" fill="#308446">Verde Tráfico</text><text x="40" y="35510" fill="#1e5945">Verde Turquesa</text><text x="40" y="35580" fill="#009d7a">Verde Veronese o Veronés</text><text x="40" y="35650" fill="#009966">Verde de París o de Schweinfurt</text><text x="40" y="35720" fill="#193737">Verde Ópalo Perlado</text><text x="40" y="35790" fill="#6ec2af">Verdete, Verdín o Verdigrís</text><text x="40" y="35860" fill="#57080d">Vino o Vinotinto</text><text x="40" y="35930" fill="#78288c">Violeta</text><text x="40" y="36000" fill="#a18594">Violeta Pastel</text><text x="40" y="36070" fill="#8673a1">Violeta Perlado</text><text x="40" y="36140" fill="#4a192c">Violeta Púrpura</text><text x="40" y="36210" fill="#924e7d">Violeta Señales</text><text x="40" y="36280" fill="#de4c8a">Violeta Érica</text><text x="40" y="36350" fill="#a10684">Violín</text><text x="40" y="36420" fill="#007f5c">Viridián</text><text x="40" y="36490" fill="#01805d">Viridián/veridian</text><text x="40" y="36560" fill="#afd77f">Wasabi</text><text x="40" y="36630" fill="#3d2e2c">Wengué</text><text x="40" y="36700" fill="#c9a0dc">Wisteria</text><text x="40" y="36770" fill="#738678">Xanadú</text><text x="40" y="36840" fill="#f49531">Xántico</text><text x="40" y="36910" fill="#ffe600">Yema</text><text x="40" y="36980" fill="#ebe9e4">Yeso</text><text x="40" y="37050" fill="#6576b4">Zafiro</text><text x="40" y="37120" fill="#ed9121">Zanahoria</text><text x="40" y="37190" fill="#91888b">Zinc</text><text x="40" y="37260" fill="#ffbf00">Ámbar</text><text x="40" y="37330" fill="#37312b">Ébano</text>
</svg>