<svg xmlns="http://www.w3.org/2000/svg" viewBox="0 0 600 23110">
  <defs>
    <style type="text/css">
      @import url('https://rsms.me/inter/inter.css');
      text {
        font-family: Inter, -apple-system, BlinkMacSystemFont, "Segoe UI", Roboto, Helvetica, Arial, sans-serif, "Apple Color Emoji", "Segoe UI Emoji", "Segoe UI Symbol";
        font-size: 40px;
        font-weight: 900;
      }
    </style>
  </defs>
  <rect fill="#202124" x="0" y="0" width="600" height="23110"/>
  <text x="40" y="90" fill="#8b8589">Acero</text><text x="40" y="160" fill="#66ada4">Agua</text><text x="40" y="230" fill="#568203">Aguacate o Palta</text><text x="40" y="300" fill="#9fd5d1">Aguamarina</text><text x="40" y="370" fill="#fab57f">Albaricoque</text><text x="40" y="440" fill="#d4442f">Almagre</text><text x="40" y="510" fill="#c19a6b">Almendra</text><text x="40" y="580" fill="#b9b8b5">Aluminio</text><text x="40" y="650" fill="#e52b50">Amaranto</text><text x="40" y="720" fill="#ffe900">Amarillo</text><text x="40" y="790" fill="#ffcd00">Amarillo Hansa</text><text x="40" y="860" fill="#eccd6a">Amarillo Nápoles</text><text x="40" y="930" fill="#edff21">Amarillo azufre</text><text x="40" y="1000" fill="#fff600">Amarillo cadmio</text><text x="40" y="1070" fill="#fada5e">Amarillo chino</text><text x="40" y="1140" fill="#ffbf08">Amarillo de cobalto</text><text x="40" y="1210" fill="#ffcc0f">Amarillo de cromo</text><text x="40" y="1280" fill="#ccff00">Amarillo fluorescente</text><text x="40" y="1350" fill="#f39430">Amarillo indio</text><text x="40" y="1420" fill="#ffeb00">Amarillo monoazo</text><text x="40" y="1490" fill="#fbba00">Amarillo naranja</text><text x="40" y="1560" fill="#fad201">Amarillo patito</text><text x="40" y="1630" fill="#ffba00">Amarillo selectivo</text><text x="40" y="1700" fill="#fbd302">Amarillo tráfico</text><text x="40" y="1770" fill="#ded700">Amarillo verdoso</text><text x="40" y="1840" fill="#9966cc">Amatista</text><text x="40" y="1910" fill="#ef7f1a">Anaranjado</text><text x="40" y="1980" fill="#bf8f4e">Ante</text><text x="40" y="2050" fill="#383e42">Antracita</text><text x="40" y="2120" fill="#ece2c6">Arena</text><text x="40" y="2190" fill="#555555">Asfalto</text><text x="40" y="2260" fill="#d7b615">Aureolina</text><text x="40" y="2330" fill="#b48969">Avellana</text><text x="40" y="2400" fill="#343434">Azabache</text><text x="40" y="2470" fill="#f4c430">Azafrán</text><text x="40" y="2540" fill="#ff4000">Azarcón</text><text x="40" y="2610" fill="#0070b8">Azul</text><text x="40" y="2680" fill="#91a3b0">Azul Alicia</text><text x="40" y="2750" fill="#78bbe4">Azul Columbia</text><text x="40" y="2820" fill="#96c8a2">Azul Eton</text><text x="40" y="2890" fill="#002fa7">Azul Klein</text><text x="40" y="2960" fill="#5564eb">Azul Majorelle</text><text x="40" y="3030" fill="#81d8d0">Azul Tiffany</text><text x="40" y="3100" fill="#4682b4">Azul acero</text><text x="40" y="3170" fill="#8f97cb">Azul aciano</text><text x="40" y="3240" fill="#89cff0">Azul bebé o azul celeste</text><text x="40" y="3310" fill="#0067a5">Azul cerúleo</text><text x="40" y="3380" fill="#00a0e3">Azul cian</text><text x="40" y="3450" fill="#3f448c">Azul cobalto</text><text x="40" y="3520" fill="#033e72">Azul de Prusia</text><text x="40" y="3590" fill="#1034a6">Azul egipcio</text><text x="40" y="3660" fill="#1630be">Azul eléctrico</text><text x="40" y="3730" fill="#000f89">Azul ftalo</text><text x="40" y="3800" fill="#007e8b">Azul glauco</text><text x="40" y="3870" fill="#7ca2b8">Azul horizonte</text><text x="40" y="3940" fill="#8c92ac">Azul lavanda</text><text x="40" y="4010" fill="#6c79b8">Azul lino o Azulino</text><text x="40" y="4080" fill="#00304e">Azul marino</text><text x="40" y="4150" fill="#73c2fb">Azul maya</text><text x="40" y="4220" fill="#2a2a46">Azul medianoche</text><text x="40" y="4290" fill="#01108a">Azul monastral</text><text x="40" y="4360" fill="#1c39bb">Azul persa</text><text x="40" y="4430" fill="#4c2882">Azul púrpura</text><text x="40" y="4500" fill="#00416a">Azul real</text><text x="40" y="4570" fill="#55b4b0">Azul turquesa</text><text x="40" y="4640" fill="#4273b8">Azul ultramar</text><text x="40" y="4710" fill="#009b94">Azul verde</text><text x="40" y="4780" fill="#8a2be2">Azul violeta</text><text x="40" y="4850" fill="#007fff">Azur</text><text x="40" y="4920" fill="#1c4c96">Añil</text><text x="40" y="4990" fill="#fbec5d">Banana</text><text x="40" y="5060" fill="#c29b6c">Barbecho</text><text x="40" y="5130" fill="#e66761">Begonia</text><text x="40" y="5200" fill="#e8c39e">Beige o beis</text><text x="40" y="5270" fill="#291e29">Berenjena</text><text x="40" y="5340" fill="#b3342c">Bermejo</text><text x="40" y="5410" fill="#e62e00">Bermellón</text><text x="40" y="5480" fill="#877d60">Bistre</text><text x="40" y="5550" fill="#967117">Bistre marrón</text><text x="40" y="5620" fill="#ffffff">Blanco</text><text x="40" y="5690" fill="#fafbfd">Blanco de zinc/cinc</text><text x="40" y="5760" fill="#b4bcc0">Blanco humo</text><text x="40" y="5830" fill="#ebe1c9">Blanco navajo</text><text x="40" y="5900" fill="#900020">Borgoña</text><text x="40" y="5970" fill="#56070c">Borravino</text><text x="40" y="6040" fill="#cd7f32">Bronce</text><text x="40" y="6110" fill="#d2b48c">Bronceado</text><text x="40" y="6180" fill="#96305a">Burdeos o bordó</text><text x="40" y="6250" fill="#ccccff">Bígaro</text><text x="40" y="6320" fill="#591f0b">Café</text><text x="40" y="6390" fill="#fff8e7">Café con leche cósmico</text><text x="40" y="6460" fill="#eeb283">Calabaza</text><text x="40" y="6530" fill="#31aac1">Calipso</text><text x="40" y="6600" fill="#c39c6d">Camello</text><text x="40" y="6670" fill="#bd8a3e">Canela</text><text x="40" y="6740" fill="#c04000">Caoba</text><text x="40" y="6810" fill="#c3b091">Caqui</text><text x="40" y="6880" fill="#ae6938">Caramelo</text><text x="40" y="6950" fill="#2b2a29">Carbón</text><text x="40" y="7020" fill="#c41e3a">Cardenal</text><text x="40" y="7090" fill="#6dc1ae">Cardenillo</text><text x="40" y="7160" fill="#d8bfd8">Cardo</text><text x="40" y="7230" fill="#ae0e36">Carmesí</text><text x="40" y="7300" fill="#d31c4f">Carmín</text><text x="40" y="7370" fill="#860919">Carmín alizarina</text><text x="40" y="7440" fill="#fcd0b4">Carne o carnación</text><text x="40" y="7510" fill="#c4c574">Cartujo</text><text x="40" y="7580" fill="#954535">Castaña o castaño</text><text x="40" y="7650" fill="#0cb7f2">Celeste</text><text x="40" y="7720" fill="#cdcdcd">Ceniza</text><text x="40" y="7790" fill="#008080">Cerceta</text><text x="40" y="7860" fill="#de3163">Cereza</text><text x="40" y="7930" fill="#02a4d3">Cerúleo</text><text x="40" y="8000" fill="#e4d00a">Cetrino</text><text x="40" y="8070" fill="#f3e5ab">Champán</text><text x="40" y="8140" fill="#beb72d">Chartreuse</text><text x="40" y="8210" fill="#7b3f00">Chocolate</text><text x="40" y="8280" fill="#00ffff">Cian</text><text x="40" y="8350" fill="#00ccff">Cielo</text><text x="40" y="8420" fill="#78184a">Ciruela</text><text x="40" y="8490" fill="#cb6d51">Cobre o cobrizo</text><text x="40" y="8560" fill="#f4c2c2">Concha</text><text x="40" y="8630" fill="#673147">Conchevino</text><text x="40" y="8700" fill="#e4717a">Coral</text><text x="40" y="8770" fill="#924549">Cordobán</text><text x="40" y="8840" fill="#bb5d5e">Corinto</text><text x="40" y="8910" fill="#fffdd0">Crema</text><text x="40" y="8980" fill="#d9d9f3">Cuarzo</text><text x="40" y="9050" fill="#fbb680">Damasco</text><text x="40" y="9120" fill="#ffe5b4">Dark</text><text x="40" y="9190" fill="#d4af37">Dorado</text><text x="40" y="9260" fill="#fee6b5">Durazno</text><text x="40" y="9330" fill="#9b8f79">Elefante</text><text x="40" y="9400" fill="#fdf5e6">Encaje antiguo</text><text x="40" y="9470" fill="#fd2d1c">Escarlata</text><text x="40" y="9540" fill="#009975">Esmeralda</text><text x="40" y="9610" fill="#4a5d23">Espinaca</text><text x="40" y="9680" fill="#b53389">Fandango</text><text x="40" y="9750" fill="#59646a">Feldgrau</text><text x="40" y="9820" fill="#e62c58">Frambuesa</text><text x="40" y="9890" fill="#ff0080">Fucsia</text><text x="40" y="9960" fill="#e8bd85">Gamuza</text><text x="40" y="10030" fill="#e52d33">Geranio</text><text x="40" y="10100" fill="#008094">Glauco</text><text x="40" y="10170" fill="#1c1c1c">Grafito</text><text x="40" y="10240" fill="#c72744">Grana</text><text x="40" y="10310" fill="#800000">Granate</text><text x="40" y="10380" fill="#808080">Gris</text><text x="40" y="10450" fill="#848482">Gris acorazado</text><text x="40" y="10520" fill="#393f43">Gris antracita</text><text x="40" y="10590" fill="#81878b">Gris cadete</text><text x="40" y="10660" fill="#cecece">Gris ceniza</text><text x="40" y="10730" fill="#565656">Gris de Davy</text><text x="40" y="10800" fill="#536878">Gris de Payne</text><text x="40" y="10870" fill="#496063">Gris frío</text><text x="40" y="10940" fill="#fabd00">Gualda o gualdo</text><text x="40" y="11010" fill="#952f57">Guinda</text><text x="40" y="11080" fill="#f00909">Gules</text><text x="40" y="11150" fill="#e49b0f">Guta o gutagamba</text><text x="40" y="11220" fill="#844e34">Habano</text><text x="40" y="11290" fill="#a2522b">Herrumbre</text><text x="40" y="11360" fill="#a2c8d4">Hielo</text><text x="40" y="11430" fill="#e3dac9">Hueso</text><text x="40" y="11500" fill="#92a4b1">Humo</text><text x="40" y="11570" fill="#891e35">Hígado</text><text x="40" y="11640" fill="#00a86b">Jade</text><text x="40" y="11710" fill="#b78e5b">Kalua</text><text x="40" y="11780" fill="#a73330">Lacre</text><text x="40" y="11850" fill="#b22222">Ladrillo</text><text x="40" y="11920" fill="#4374b9">Lapislázuli</text><text x="40" y="11990" fill="#ab9144">Latón</text><text x="40" y="12060" fill="#483c32">Lava</text><text x="40" y="12130" fill="#b82928">Lava fundida</text><text x="40" y="12200" fill="#b57edc">Lavanda</text><text x="40" y="12270" fill="#c49d6e">León o leonado</text><text x="40" y="12340" fill="#c8a2c8">Lila</text><text x="40" y="12410" fill="#bfff00">Lima</text><text x="40" y="12480" fill="#e3ff00">Lima-limón</text><text x="40" y="12550" fill="#d9e542">Limón</text><text x="40" y="12620" fill="#d7d0b7">Lino</text><text x="40" y="12690" fill="#7f69a5">Lirio</text><text x="40" y="12760" fill="#f98f1d">Llama</text><text x="40" y="12830" fill="#852c84">Lombarda</text><text x="40" y="12900" fill="#ffba14">Lúcuma</text><text x="40" y="12970" fill="#ff00ff">Magenta</text><text x="40" y="13040" fill="#0bda51">Malaquita</text><text x="40" y="13110" fill="#e0b0ff">Malva</text><text x="40" y="13180" fill="#f06030">Mamey</text><text x="40" y="13250" fill="#ed872d">Mandarina</text><text x="40" y="13320" fill="#f4e6ac">Marfil</text><text x="40" y="13390" fill="#993300">Marrón</text><text x="40" y="13460" fill="#97572b">Marrón cuero</text><text x="40" y="13530" fill="#996515">Marrón dorado</text><text x="40" y="13600" fill="#fced5e">Maíz</text><text x="40" y="13670" fill="#fde7b6">Melocotón</text><text x="40" y="13740" fill="#fbca7f">Melón</text><text x="40" y="13810" fill="#bff7dc">Menta</text><text x="40" y="13880" fill="#d29340">Miel</text><text x="40" y="13950" fill="#e2afed">Molvada</text><text x="40" y="14020" fill="#c54b8c">Morado</text><text x="40" y="14090" fill="#ffdb58">Mostaza</text><text x="40" y="14160" fill="#51794b">Musgo</text><text x="40" y="14230" fill="#f0801b">Naranja</text><text x="40" y="14300" fill="#ee882e">Naranja cadmio</text><text x="40" y="14370" fill="#f38d3c">Naranja caqui</text><text x="40" y="14440" fill="#ff5a36">Naranja de portland</text><text x="40" y="14510" fill="#d99058">Naranja persa</text><text x="40" y="14580" fill="#000000">Negro</text><text x="40" y="14650" fill="#2a3223">Negro bujía</text><text x="40" y="14720" fill="#382212">Negro de humo</text><text x="40" y="14790" fill="#5d432c">Nogal</text><text x="40" y="14860" fill="#8f817f">Níquel</text><text x="40" y="14930" fill="#fad6a5">Ocaso</text><text x="40" y="15000" fill="#b9935a">Ocre</text><text x="40" y="15070" fill="#d9ad2a">Ocre amarillo</text><text x="40" y="15140" fill="#c97e28">Ocre dorado</text><text x="40" y="15210" fill="#5f3f3e">Ocre pardo</text><text x="40" y="15280" fill="#823a3f">Ocre rojo</text><text x="40" y="15350" fill="#808000">Oliva</text><text x="40" y="15420" fill="#ffd700">Oro</text><text x="40" y="15490" fill="#cfb53b">Oro viejo</text><text x="40" y="15560" fill="#da70d6">Orquídea</text><text x="40" y="15630" fill="#dd969c">Palo rosa</text><text x="40" y="15700" fill="#578304">Palta o aguacate</text><text x="40" y="15770" fill="#ac8147">Pardo</text><text x="40" y="15840" fill="#f0ead6">Perla</text><text x="40" y="15910" fill="#cd853f">Perú</text><text x="40" y="15980" fill="#ffd4b2">Piel</text><text x="40" y="16050" fill="#93c572">Pistacho</text><text x="40" y="16120" fill="#5d6770">Pizarra</text><text x="40" y="16190" fill="#c0c0c0">Plata o plateado</text><text x="40" y="16260" fill="#e5e4e2">Platino</text><text x="40" y="16330" fill="#575757">Plomo</text><text x="40" y="16400" fill="#436b95">Porcelana</text><text x="40" y="16470" fill="#245338">Porráceo</text><text x="40" y="16540" fill="#cbc65d">Puerro</text><text x="40" y="16610" fill="#e62e11">Punzó</text><text x="40" y="16680" fill="#9a4eae">Purpúreo</text><text x="40" y="16750" fill="#6a0dad">Púrpura</text><text x="40" y="16820" fill="#7b236d">Púrpura de Tiro</text><text x="40" y="16890" fill="#cc00ff">Púrpura eléctrico</text><text x="40" y="16960" fill="#9e0e40">Púrpura francés</text><text x="40" y="17030" fill="#e5b03d">Quercitrón</text><text x="40" y="17100" fill="#c42d45">Quermes</text><text x="40" y="17170" fill="#e60026">Rojo</text><text x="40" y="17240" fill="#a54332">Rojo Falun</text><text x="40" y="17310" fill="#cc0000">Rojo Ferrari</text><text x="40" y="17380" fill="#ae2029">Rojo Upsdell</text><text x="40" y="17450" fill="#ea4613">Rojo anaranjado</text><text x="40" y="17520" fill="#ea453f">Rojo coral</text><text x="40" y="17590" fill="#ff005a">Rojo fucsia</text><text x="40" y="17660" fill="#882d17">Rojo indio</text><text x="40" y="17730" fill="#e5097f">Rojo magenta</text><text x="40" y="17800" fill="#fe575f">Rojo neón</text><text x="40" y="17870" fill="#9c0002">Rojo periodo</text><text x="40" y="17940" fill="#cb1d11">Rojo persa</text><text x="40" y="18010" fill="#b21154">Rojo púrpura</text><text x="40" y="18080" fill="#9c0001">Rojo sangre</text><text x="40" y="18150" fill="#79443b">Rojo toscano</text><text x="40" y="18220" fill="#6e433c">Rojo veneciano</text><text x="40" y="18290" fill="#c71585">Rojo violeta</text><text x="40" y="18360" fill="#aa5b56">Rojo óxido</text><text x="40" y="18430" fill="#997a8d">Rosa Mountbatten</text><text x="40" y="18500" fill="#f88379">Rosa coral</text><text x="40" y="18570" fill="#e8ccd7">Rosa lavanda</text><text x="40" y="18640" fill="#d597ae">Rosa malva</text><text x="40" y="18710" fill="#f50087">Rosa mexicano</text><text x="40" y="18780" fill="#ff9966">Rosa naranja</text><text x="40" y="18850" fill="#ffc0cb">Rosa o rosado</text><text x="40" y="18920" fill="#fc0fc0">Rosa shocking</text><text x="40" y="18990" fill="#e0115f">Rubí</text><text x="40" y="19060" fill="#cc6e52">Rufo</text><text x="40" y="19130" fill="#f28773">Salmón</text><text x="40" y="19200" fill="#93a996">Salvia</text><text x="40" y="19270" fill="#245b60">Salvia Azulado</text><text x="40" y="19340" fill="#92000a">Sangría</text><text x="40" y="19410" fill="#8a5754">Secuoya</text><text x="40" y="19480" fill="#663b2a">Sepia</text><text x="40" y="19550" fill="#c58a3e">Siena</text><text x="40" y="19620" fill="#892e18">Siena tostada</text><text x="40" y="19690" fill="#008c00">Sinople</text><text x="40" y="19760" fill="#b94841">Teja</text><text x="40" y="19830" fill="#ff6347">Tomate</text><text x="40" y="19900" fill="#87794e">Torcaza o topo</text><text x="40" y="19970" fill="#fe6448">Toronja</text><text x="40" y="20040" fill="#f5deb3">Trigo</text><text x="40" y="20110" fill="#40e0d0">Turquesa</text><text x="40" y="20180" fill="#122562">Turquí</text><text x="40" y="20250" fill="#cffdaf">Té verde</text><text x="40" y="20320" fill="#f5e7ad">Vainilla</text><text x="40" y="20390" fill="#008000">Verde</text><text x="40" y="20460" fill="#44944a">Verde Hooker</text><text x="40" y="20530" fill="#009d7a">Verde Veronese o Veronés</text><text x="40" y="20600" fill="#87e79e">Verde agua</text><text x="40" y="20670" fill="#c6ce00">Verde amarillo</text><text x="40" y="20740" fill="#009a79">Verde azulado</text><text x="40" y="20810" fill="#228b22">Verde bosque</text><text x="40" y="20880" fill="#1b4d3e">Verde botella</text><text x="40" y="20950" fill="#004225">Verde británico de carreras</text><text x="40" y="21020" fill="#5f7f7a">Verde ceniza</text><text x="40" y="21090" fill="#00ff99">Verde cian</text><text x="40" y="21160" fill="#98ff98">Verde claro</text><text x="40" y="21230" fill="#009966">Verde de París o de Schweinfurt</text><text x="40" y="21300" fill="#019a76">Verde esmeralda</text><text x="40" y="21370" fill="#0f4f41">Verde ftalo</text><text x="40" y="21440" fill="#c0fe01">Verde limón</text><text x="40" y="21510" fill="#52b830">Verde loro</text><text x="40" y="21580" fill="#8db600">Verde manzana</text><text x="40" y="21650" fill="#2e8b57">Verde mar</text><text x="40" y="21720" fill="#9bfad0">Verde menta</text><text x="40" y="21790" fill="#86895d">Verde militar</text><text x="40" y="21860" fill="#9b933b">Verde oliva</text><text x="40" y="21930" fill="#006400">Verde oscuro</text><text x="40" y="22000" fill="#173f35">Verde petróleo</text><text x="40" y="22070" fill="#00ff7f">Verde primavera</text><text x="40" y="22140" fill="#49b675">Verde turquesa</text><text x="40" y="22210" fill="#6ec2af">Verdete, verdín o verdigrís</text><text x="40" y="22280" fill="#57080d">Vino o vinotinto</text><text x="40" y="22350" fill="#78288c">Violeta</text><text x="40" y="22420" fill="#a10684">Violín</text><text x="40" y="22490" fill="#007f5c">Viridián/Veridian</text><text x="40" y="22560" fill="#afd77f">Wasabi</text><text x="40" y="22630" fill="#3d2e2c">Wengué</text><text x="40" y="22700" fill="#c9a0dc">Wisteria</text><text x="40" y="22770" fill="#6576b4">Zafiro</text><text x="40" y="22840" fill="#ed9121">Zanahoria</text><text x="40" y="22910" fill="#91888b">Zinc</text><text x="40" y="22980" fill="#ffbf00">Ámbar</text><text x="40" y="23050" fill="#37312b">Ébano</text>
</svg>